<svg width="743" height="725" viewBox="0 0 743 725" fill="none" xmlns="http://www.w3.org/2000/svg">
<g clip-path="url(#clip0_259_2)">
<path d="M370.363 29.0116C371.852 29.0152 373.341 29.0188 374.875 29.0225C397.566 29.1082 419.098 30.4316 441.238 35.7316C443.399 36.1947 445.56 36.6543 447.723 37.1099C493.608 47.2146 536.353 68.9274 573.134 97.8211C574.375 98.7503 575.616 99.6795 576.895 100.637C601.072 119.358 622.528 142.339 639.84 167.482C640.975 169.116 640.975 169.116 642.133 170.783C678.765 224.198 698.087 286.187 697.929 350.802C697.924 354.862 697.96 358.92 697.998 362.979C698.086 386.805 695.21 410.104 689.491 433.256C689.011 435.212 689.011 435.212 688.521 437.208C679.929 471.011 665.83 515.763 640.441 540.913C637.073 546.72 637.659 552.557 637.669 559.151C637.653 560.629 637.638 562.107 637.622 563.63C637.576 568.514 637.562 573.397 637.549 578.281C637.523 581.667 637.496 585.054 637.466 588.441C637.394 597.353 637.349 606.266 637.309 615.179C637.264 624.274 637.194 633.369 637.125 642.464C636.995 660.31 636.893 678.155 636.808 696C634.854 694.546 632.901 693.089 630.949 691.632C629.861 690.822 628.773 690.011 627.653 689.176C624.592 686.847 621.732 684.413 618.947 681.761C618.023 680.888 617.098 680.015 616.145 679.116C615.209 678.222 614.274 677.328 613.31 676.408C611.313 674.523 609.315 672.64 607.316 670.758C605.911 669.434 605.911 669.434 604.477 668.082C600.66 664.518 596.731 661.096 592.772 657.691C588.953 654.364 585.216 650.952 581.473 647.54C575.728 642.307 569.934 637.143 564.068 632.047C556.613 625.523 549.292 618.847 541.937 612.212C535.226 606.167 528.484 600.165 521.666 594.241C518.161 591.16 514.713 588.022 511.261 584.883C506.076 580.201 500.789 575.721 495.342 571.348C488.045 565.457 481.19 559.208 474.347 552.807C467.96 546.866 461.305 541.353 454.498 535.896C449.935 532.117 445.575 528.15 441.238 524.118C434.267 517.638 427.06 511.57 419.634 505.609C413.603 500.619 407.881 495.323 402.147 489.997C399.036 486.976 399.036 486.975 395.757 485.502C395.757 484.502 395.757 483.503 395.757 482.473C397.406 482.123 399.056 481.774 400.755 481.414C438.889 473.075 472.131 454.446 493.921 421.141C495.591 418.381 497.235 415.605 498.848 412.811C499.532 411.652 500.216 410.492 500.921 409.298C516.951 379.958 521.376 339.397 513.25 307.184C502 270.236 477.568 238.675 443.451 220.369C410.817 203.478 373.79 198.432 338.147 208.371C317.683 214.86 299.849 224.745 283.569 238.658C281.224 240.438 281.224 240.438 278.831 242.255C256.768 262.378 243.641 291.572 238.088 320.434C237.693 322.412 237.693 322.412 237.29 324.429C236.418 330.612 236.339 336.623 236.332 342.859C236.324 344.184 236.317 345.509 236.309 346.874C236.286 351.304 236.273 355.733 236.26 360.162C236.246 363.342 236.231 366.521 236.215 369.7C236.174 378.326 236.142 386.951 236.112 395.577C236.079 404.593 236.037 413.609 235.996 422.625C235.921 439.697 235.853 456.768 235.787 473.839C235.712 493.275 235.629 512.71 235.545 532.146C235.373 572.125 235.211 612.104 235.056 652.083C231.205 650.173 227.356 648.26 223.508 646.345C221.889 645.542 221.889 645.542 220.237 644.724C176.173 622.779 136.254 589.284 107.708 549.105C106.748 547.757 106.748 547.757 105.77 546.382C76.7824 505.182 56.1041 458.258 48.5817 408.268C48.315 406.56 48.0484 404.852 47.7737 403.092C45.5661 387.547 45.0327 372.223 45.071 356.533C45.0758 352.44 45.04 348.349 45.0018 344.256C44.9378 326.768 46.6105 310.305 50.0977 293.176C50.399 291.652 50.7004 290.128 51.0108 288.558C61.1961 239.436 82.2376 193.012 113.772 153.853C114.976 152.342 116.179 150.831 117.42 149.274C162.089 94.3145 221.553 57.6653 289.349 38.4764C290.585 38.1161 291.821 37.7559 293.095 37.3847C318.504 30.4431 344.147 28.8439 370.363 29.0116Z" fill="url(#paint0_linear_259_2)"/>
</g>
<defs>
<linearGradient id="paint0_linear_259_2" x1="45" y1="362.5" x2="698" y2="362.5" gradientUnits="userSpaceOnUse">
<stop stop-color="#FF3381"/>
<stop offset="0.3" stop-color="#FF2200"/>
<stop offset="0.697115" stop-color="#FF7D00"/>
<stop offset="1" stop-color="#FFFB00"/>
</linearGradient>
<clipPath id="clip0_259_2">
<rect width="743" height="725" fill="white"/>
</clipPath>
</defs>
</svg>
